{
	"patcher" : 	{
		"fileversion" : 1,
		"appversion" : 		{
			"major" : 8,
			"minor" : 0,
			"revision" : 3,
			"architecture" : "x64",
			"modernui" : 1
		}
,
		"classnamespace" : "box",
		"rect" : [ 34.0, 77.0, 1852.0, 939.0 ],
		"bglocked" : 0,
		"openinpresentation" : 1,
		"default_fontsize" : 12.0,
		"default_fontface" : 0,
		"default_fontname" : "Arial",
		"gridonopen" : 1,
		"gridsize" : [ 15.0, 15.0 ],
		"gridsnaponopen" : 1,
		"objectsnaponopen" : 1,
		"statusbarvisible" : 2,
		"toolbarvisible" : 1,
		"lefttoolbarpinned" : 0,
		"toptoolbarpinned" : 0,
		"righttoolbarpinned" : 0,
		"bottomtoolbarpinned" : 0,
		"toolbars_unpinned_last_save" : 0,
		"tallnewobj" : 0,
		"boxanimatetime" : 200,
		"enablehscroll" : 1,
		"enablevscroll" : 1,
		"devicewidth" : 0.0,
		"description" : "",
		"digest" : "",
		"tags" : "",
		"style" : "",
		"subpatcher_template" : "",
		"boxes" : [ 			{
				"box" : 				{
					"bgmode" : 0,
					"border" : 0,
					"clickthrough" : 0,
					"embed" : 1,
					"enablehscroll" : 0,
					"enablevscroll" : 0,
					"id" : "obj-31",
					"lockeddragscroll" : 0,
					"maxclass" : "bpatcher",
					"numinlets" : 0,
					"numoutlets" : 1,
					"offset" : [ 0.0, 0.0 ],
					"outlettype" : [ "" ],
					"patcher" : 					{
						"fileversion" : 1,
						"appversion" : 						{
							"major" : 8,
							"minor" : 0,
							"revision" : 3,
							"architecture" : "x64",
							"modernui" : 1
						}
,
						"classnamespace" : "box",
						"rect" : [ 873.0, 224.0, 717.0, 565.0 ],
						"bglocked" : 0,
						"openinpresentation" : 1,
						"default_fontsize" : 12.0,
						"default_fontface" : 0,
						"default_fontname" : "Arial",
						"gridonopen" : 1,
						"gridsize" : [ 15.0, 15.0 ],
						"gridsnaponopen" : 1,
						"objectsnaponopen" : 1,
						"statusbarvisible" : 2,
						"toolbarvisible" : 1,
						"lefttoolbarpinned" : 0,
						"toptoolbarpinned" : 0,
						"righttoolbarpinned" : 0,
						"bottomtoolbarpinned" : 0,
						"toolbars_unpinned_last_save" : 0,
						"tallnewobj" : 0,
						"boxanimatetime" : 200,
						"enablehscroll" : 1,
						"enablevscroll" : 1,
						"devicewidth" : 0.0,
						"description" : "",
						"digest" : "",
						"tags" : "",
						"style" : "",
						"subpatcher_template" : "",
						"boxes" : [ 							{
								"box" : 								{
									"id" : "obj-7",
									"maxclass" : "textbutton",
									"numinlets" : 1,
									"numoutlets" : 3,
									"outlettype" : [ "", "", "int" ],
									"parameter_enable" : 0,
									"patching_rect" : [ 282.5, 302.0, 100.0, 20.0 ],
									"presentation" : 1,
									"presentation_rect" : [ 0.0, 22.0, 155.0, 20.0 ],
									"rounded" : 8.0,
									"text" : "Set Erase Color"
								}

							}
, 							{
								"box" : 								{
									"id" : "obj-6",
									"maxclass" : "textbutton",
									"numinlets" : 1,
									"numoutlets" : 3,
									"outlettype" : [ "", "", "int" ],
									"parameter_enable" : 0,
									"patching_rect" : [ 481.0, 210.0, 100.0, 20.0 ],
									"presentation" : 1,
									"presentation_rect" : [ 0.0, 65.0, 155.0, 20.0 ],
									"rounded" : 8.0,
									"text" : "Reset Position (r key)"
								}

							}
, 							{
								"box" : 								{
									"id" : "obj-5",
									"maxclass" : "textbutton",
									"mode" : 1,
									"numinlets" : 1,
									"numoutlets" : 3,
									"outlettype" : [ "", "", "int" ],
									"parameter_enable" : 0,
									"patching_rect" : [ 57.0, 125.0, 100.0, 20.0 ],
									"presentation" : 1,
									"presentation_rect" : [ 0.0, 44.0, 155.0, 20.0 ],
									"text" : "Fly",
									"varname" : "textbutton"
								}

							}
, 							{
								"box" : 								{
									"id" : "obj-10",
									"maxclass" : "newobj",
									"numinlets" : 1,
									"numoutlets" : 1,
									"outlettype" : [ "" ],
									"patching_rect" : [ 395.5, 463.0, 119.0, 22.0 ],
									"text" : "prepend erase_color"
								}

							}
, 							{
								"box" : 								{
									"id" : "obj-9",
									"maxclass" : "newobj",
									"numinlets" : 1,
									"numoutlets" : 3,
									"outlettype" : [ "", "", "" ],
									"patching_rect" : [ 395.5, 405.0, 99.0, 22.0 ],
									"restore" : [ 0.741176470588235, 0.145098039215686, 0.145098039215686, 1.0 ],
									"saved_object_attributes" : 									{
										"parameter_enable" : 0,
										"parameter_mappable" : 0
									}
,
									"text" : "pattr erase_color",
									"varname" : "erase_color[1]"
								}

							}
, 							{
								"box" : 								{
									"id" : "obj-3",
									"maxclass" : "newobj",
									"numinlets" : 1,
									"numoutlets" : 2,
									"outlettype" : [ "list", "bang" ],
									"patching_rect" : [ 282.5, 365.0, 158.0, 22.0 ],
									"text" : "colorpicker @compatibility 0"
								}

							}
, 							{
								"box" : 								{
									"id" : "obj-53",
									"maxclass" : "newobj",
									"numinlets" : 1,
									"numoutlets" : 1,
									"outlettype" : [ "" ],
									"patcher" : 									{
										"fileversion" : 1,
										"appversion" : 										{
											"major" : 8,
											"minor" : 0,
											"revision" : 3,
											"architecture" : "x64",
											"modernui" : 1
										}
,
										"classnamespace" : "box",
										"rect" : [ 0.0, 0.0, 640.0, 480.0 ],
										"bglocked" : 0,
										"openinpresentation" : 0,
										"default_fontsize" : 12.0,
										"default_fontface" : 0,
										"default_fontname" : "Arial",
										"gridonopen" : 1,
										"gridsize" : [ 15.0, 15.0 ],
										"gridsnaponopen" : 1,
										"objectsnaponopen" : 1,
										"statusbarvisible" : 2,
										"toolbarvisible" : 1,
										"lefttoolbarpinned" : 0,
										"toptoolbarpinned" : 0,
										"righttoolbarpinned" : 0,
										"bottomtoolbarpinned" : 0,
										"toolbars_unpinned_last_save" : 0,
										"tallnewobj" : 0,
										"boxanimatetime" : 200,
										"enablehscroll" : 1,
										"enablevscroll" : 1,
										"devicewidth" : 0.0,
										"description" : "",
										"digest" : "",
										"tags" : "",
										"style" : "",
										"subpatcher_template" : "",
										"boxes" : [ 											{
												"box" : 												{
													"id" : "obj-25",
													"maxclass" : "newobj",
													"numinlets" : 1,
													"numoutlets" : 1,
													"outlettype" : [ "bang" ],
													"patching_rect" : [ 50.0, 100.0, 60.0, 22.0 ],
													"text" : "loadbang"
												}

											}
, 											{
												"box" : 												{
													"id" : "obj-26",
													"maxclass" : "message",
													"numinlets" : 2,
													"numoutlets" : 1,
													"outlettype" : [ "" ],
													"patching_rect" : [ 50.0, 167.0, 67.0, 22.0 ],
													"text" : "ui_map $2"
												}

											}
, 											{
												"box" : 												{
													"data" : 													{
														"keymap" : 														{
															"a" : "move -1 0 0",
															"d" : "move 1 0 0",
															"z" : "move 0 -1 0",
															"q" : "move 0 1 0",
															"w" : "move 0 0 -1",
															"s" : "move 0 0 1"
														}
,
														"mousemap" : 														{
															"mouse_down_horizontal" : "turn 0 -1 0",
															"mouse_down_vertical" : "turn -0.5 0 0"
														}

													}
,
													"id" : "obj-28",
													"maxclass" : "newobj",
													"numinlets" : 2,
													"numoutlets" : 4,
													"outlettype" : [ "dictionary", "", "", "" ],
													"patching_rect" : [ 50.0, 136.0, 98.0, 22.0 ],
													"saved_object_attributes" : 													{
														"embed" : 1,
														"parameter_enable" : 0,
														"parameter_mappable" : 0
													}
,
													"text" : "dict @embed 1"
												}

											}
, 											{
												"box" : 												{
													"fontname" : "Arial",
													"fontsize" : 12.0,
													"id" : "obj-81",
													"maxclass" : "newobj",
													"numinlets" : 2,
													"numoutlets" : 1,
													"outlettype" : [ "int" ],
													"patching_rect" : [ 209.5, 158.092499000000004, 32.5, 22.0 ],
													"text" : "> 0"
												}

											}
, 											{
												"box" : 												{
													"fontname" : "Arial",
													"fontsize" : 12.0,
													"id" : "obj-80",
													"maxclass" : "message",
													"numinlets" : 2,
													"numoutlets" : 1,
													"outlettype" : [ "" ],
													"patching_rect" : [ 209.5, 186.184998000000007, 71.0, 22.0 ],
													"text" : "ui_listen $1"
												}

											}
, 											{
												"box" : 												{
													"comment" : "",
													"id" : "obj-51",
													"index" : 1,
													"maxclass" : "inlet",
													"numinlets" : 0,
													"numoutlets" : 1,
													"outlettype" : [ "" ],
													"patching_rect" : [ 209.5, 40.0, 30.0, 30.0 ]
												}

											}
, 											{
												"box" : 												{
													"comment" : "",
													"id" : "obj-52",
													"index" : 1,
													"maxclass" : "outlet",
													"numinlets" : 1,
													"numoutlets" : 0,
													"patching_rect" : [ 123.75, 268.184998000000007, 30.0, 30.0 ]
												}

											}
 ],
										"lines" : [ 											{
												"patchline" : 												{
													"destination" : [ "obj-28", 0 ],
													"source" : [ "obj-25", 0 ]
												}

											}
, 											{
												"patchline" : 												{
													"destination" : [ "obj-52", 0 ],
													"source" : [ "obj-26", 0 ]
												}

											}
, 											{
												"patchline" : 												{
													"destination" : [ "obj-26", 0 ],
													"source" : [ "obj-28", 0 ]
												}

											}
, 											{
												"patchline" : 												{
													"destination" : [ "obj-81", 0 ],
													"source" : [ "obj-51", 0 ]
												}

											}
, 											{
												"patchline" : 												{
													"destination" : [ "obj-52", 0 ],
													"source" : [ "obj-80", 0 ]
												}

											}
, 											{
												"patchline" : 												{
													"destination" : [ "obj-80", 0 ],
													"source" : [ "obj-81", 0 ]
												}

											}
 ]
									}
,
									"patching_rect" : [ 92.0, 172.0, 77.0, 22.0 ],
									"saved_object_attributes" : 									{
										"description" : "",
										"digest" : "",
										"globalpatchername" : "",
										"tags" : ""
									}
,
									"text" : "p movement"
								}

							}
, 							{
								"box" : 								{
									"id" : "obj-50",
									"maxclass" : "newobj",
									"numinlets" : 1,
									"numoutlets" : 1,
									"outlettype" : [ "" ],
									"patcher" : 									{
										"fileversion" : 1,
										"appversion" : 										{
											"major" : 8,
											"minor" : 0,
											"revision" : 3,
											"architecture" : "x64",
											"modernui" : 1
										}
,
										"classnamespace" : "box",
										"rect" : [ 59.0, 107.0, 640.0, 480.0 ],
										"bglocked" : 0,
										"openinpresentation" : 0,
										"default_fontsize" : 12.0,
										"default_fontface" : 0,
										"default_fontname" : "Arial",
										"gridonopen" : 1,
										"gridsize" : [ 15.0, 15.0 ],
										"gridsnaponopen" : 1,
										"objectsnaponopen" : 1,
										"statusbarvisible" : 2,
										"toolbarvisible" : 1,
										"lefttoolbarpinned" : 0,
										"toptoolbarpinned" : 0,
										"righttoolbarpinned" : 0,
										"bottomtoolbarpinned" : 0,
										"toolbars_unpinned_last_save" : 0,
										"tallnewobj" : 0,
										"boxanimatetime" : 200,
										"enablehscroll" : 1,
										"enablevscroll" : 1,
										"devicewidth" : 0.0,
										"description" : "",
										"digest" : "",
										"tags" : "",
										"style" : "",
										"subpatcher_template" : "",
										"boxes" : [ 											{
												"box" : 												{
													"id" : "obj-47",
													"maxclass" : "newobj",
													"numinlets" : 2,
													"numoutlets" : 2,
													"outlettype" : [ "bang", "" ],
													"patching_rect" : [ 141.0, 136.092499000000004, 48.0, 22.0 ],
													"text" : "sel 114"
												}

											}
, 											{
												"box" : 												{
													"id" : "obj-44",
													"maxclass" : "newobj",
													"numinlets" : 0,
													"numoutlets" : 4,
													"outlettype" : [ "int", "int", "int", "int" ],
													"patching_rect" : [ 141.0, 100.0, 50.5, 22.0 ],
													"text" : "key"
												}

											}
, 											{
												"box" : 												{
													"fontname" : "Arial",
													"fontsize" : 12.0,
													"id" : "obj-86",
													"maxclass" : "message",
													"numinlets" : 2,
													"numoutlets" : 1,
													"outlettype" : [ "" ],
													"patching_rect" : [ 50.0, 171.907470999999987, 266.0, 22.0 ],
													"text" : "position 0. 0. 2., rotatexyz 0. 0. 0., lookat 0. 0. 0."
												}

											}
, 											{
												"box" : 												{
													"comment" : "",
													"id" : "obj-48",
													"index" : 1,
													"maxclass" : "inlet",
													"numinlets" : 0,
													"numoutlets" : 1,
													"outlettype" : [ "" ],
													"patching_rect" : [ 50.0, 40.0, 30.0, 30.0 ]
												}

											}
, 											{
												"box" : 												{
													"comment" : "",
													"id" : "obj-49",
													"index" : 1,
													"maxclass" : "outlet",
													"numinlets" : 1,
													"numoutlets" : 0,
													"patching_rect" : [ 50.0, 253.907470999999987, 30.0, 30.0 ]
												}

											}
 ],
										"lines" : [ 											{
												"patchline" : 												{
													"destination" : [ "obj-47", 0 ],
													"source" : [ "obj-44", 0 ]
												}

											}
, 											{
												"patchline" : 												{
													"destination" : [ "obj-86", 0 ],
													"source" : [ "obj-47", 0 ]
												}

											}
, 											{
												"patchline" : 												{
													"destination" : [ "obj-86", 0 ],
													"source" : [ "obj-48", 0 ]
												}

											}
, 											{
												"patchline" : 												{
													"destination" : [ "obj-49", 0 ],
													"source" : [ "obj-86", 0 ]
												}

											}
 ]
									}
,
									"patching_rect" : [ 385.0, 203.907470703125, 47.0, 22.0 ],
									"saved_object_attributes" : 									{
										"description" : "",
										"digest" : "",
										"globalpatchername" : "",
										"tags" : ""
									}
,
									"text" : "p reset"
								}

							}
, 							{
								"box" : 								{
									"id" : "obj-12",
									"maxclass" : "newobj",
									"numinlets" : 1,
									"numoutlets" : 3,
									"outlettype" : [ "", "", "" ],
									"patching_rect" : [ 57.0, 79.0, 48.0, 22.0 ],
									"restore" : [ 0 ],
									"saved_object_attributes" : 									{
										"parameter_enable" : 0,
										"parameter_mappable" : 0
									}
,
									"text" : "pattr fly",
									"varname" : "fly"
								}

							}
, 							{
								"box" : 								{
									"fontname" : "Arial",
									"fontsize" : 12.0,
									"id" : "obj-36",
									"maxclass" : "newobj",
									"numinlets" : 1,
									"numoutlets" : 2,
									"outlettype" : [ "", "" ],
									"patching_rect" : [ 92.0, 203.907470703125, 280.0, 22.0 ],
									"text" : "jit.anim.drive @ui_listen 0 @speed 5. @easein 0.9"
								}

							}
, 							{
								"box" : 								{
									"comment" : "",
									"id" : "obj-1",
									"index" : 1,
									"maxclass" : "outlet",
									"numinlets" : 1,
									"numoutlets" : 0,
									"patching_rect" : [ 186.0, 494.0, 30.0, 30.0 ]
								}

							}
, 							{
								"box" : 								{
									"bgcolor" : [ 1.0, 1.0, 1.0, 0.51 ],
									"id" : "obj-37",
									"maxclass" : "comment",
									"numinlets" : 1,
									"numoutlets" : 0,
									"patching_rect" : [ 8.75, 6.0, 496.5, 20.0 ],
									"presentation" : 1,
									"presentation_rect" : [ 0.0, 0.0, 155.0, 20.0 ],
									"text" : "jit.gl.camera"
								}

							}
, 							{
								"box" : 								{
									"angle" : 270.0,
									"bgcolor" : [ 0.886447, 0.875368, 0.752885, 1.0 ],
									"id" : "obj-38",
									"maxclass" : "panel",
									"mode" : 0,
									"numinlets" : 1,
									"numoutlets" : 0,
									"patching_rect" : [ 8.75, 6.0, 641.5, 258.0 ],
									"presentation" : 1,
									"presentation_rect" : [ 0.0, 0.0, 155.0, 85.0 ],
									"proportion" : 0.39
								}

							}
 ],
						"lines" : [ 							{
								"patchline" : 								{
									"destination" : [ "obj-1", 0 ],
									"source" : [ "obj-10", 0 ]
								}

							}
, 							{
								"patchline" : 								{
									"destination" : [ "obj-5", 0 ],
									"source" : [ "obj-12", 1 ]
								}

							}
, 							{
								"patchline" : 								{
									"destination" : [ "obj-9", 0 ],
									"source" : [ "obj-3", 0 ]
								}

							}
, 							{
								"patchline" : 								{
									"destination" : [ "obj-1", 0 ],
									"source" : [ "obj-36", 0 ]
								}

							}
, 							{
								"patchline" : 								{
									"destination" : [ "obj-53", 0 ],
									"source" : [ "obj-5", 0 ]
								}

							}
, 							{
								"patchline" : 								{
									"destination" : [ "obj-1", 0 ],
									"source" : [ "obj-50", 0 ]
								}

							}
, 							{
								"patchline" : 								{
									"destination" : [ "obj-36", 0 ],
									"source" : [ "obj-53", 0 ]
								}

							}
, 							{
								"patchline" : 								{
									"destination" : [ "obj-50", 0 ],
									"source" : [ "obj-6", 0 ]
								}

							}
, 							{
								"patchline" : 								{
									"destination" : [ "obj-3", 0 ],
									"source" : [ "obj-7", 0 ]
								}

							}
, 							{
								"patchline" : 								{
									"destination" : [ "obj-10", 0 ],
									"order" : 0,
									"source" : [ "obj-9", 0 ]
								}

							}
, 							{
								"patchline" : 								{
									"destination" : [ "obj-3", 0 ],
									"order" : 1,
									"source" : [ "obj-9", 0 ]
								}

							}
 ],
						"styles" : [ 							{
								"name" : "Audiomix",
								"default" : 								{
									"bgfillcolor" : 									{
										"type" : "gradient",
										"color1" : [ 0.376471, 0.384314, 0.4, 1.0 ],
										"color2" : [ 0.290196, 0.309804, 0.301961, 1.0 ],
										"color" : [ 0.290196, 0.309804, 0.301961, 1.0 ],
										"angle" : 270.0,
										"proportion" : 0.39
									}

								}
,
								"parentstyle" : "",
								"multi" : 0
							}
, 							{
								"name" : "newobjBlue-1",
								"default" : 								{
									"accentcolor" : [ 0.317647, 0.654902, 0.976471, 1.0 ]
								}
,
								"parentstyle" : "",
								"multi" : 0
							}
, 							{
								"name" : "newobjGreen-1",
								"default" : 								{
									"accentcolor" : [ 0.0, 0.533333, 0.168627, 1.0 ]
								}
,
								"parentstyle" : "",
								"multi" : 0
							}
, 							{
								"name" : "newobjRed-1",
								"default" : 								{
									"accentcolor" : [ 0.784314, 0.145098, 0.023529, 1.0 ]
								}
,
								"parentstyle" : "",
								"multi" : 0
							}
, 							{
								"name" : "newobjYellow-1",
								"default" : 								{
									"accentcolor" : [ 0.82517, 0.78181, 0.059545, 1.0 ],
									"fontsize" : [ 12.059008 ]
								}
,
								"parentstyle" : "",
								"multi" : 0
							}
 ]
					}
,
					"patching_rect" : [ 295.0, 41.907470703125, 161.0, 91.0 ],
					"presentation" : 1,
					"presentation_rect" : [ 181.5, 8.0, 161.0, 91.0 ],
					"varname" : "jitworld[1]",
					"viewvisibility" : 1
				}

			}
, 			{
				"box" : 				{
					"bgmode" : 0,
					"border" : 0,
					"clickthrough" : 0,
					"embed" : 1,
					"enablehscroll" : 0,
					"enablevscroll" : 0,
					"id" : "obj-29",
					"lockeddragscroll" : 0,
					"maxclass" : "bpatcher",
					"numinlets" : 1,
					"numoutlets" : 1,
					"offset" : [ 0.0, 0.0 ],
					"outlettype" : [ "" ],
					"patcher" : 					{
						"fileversion" : 1,
						"appversion" : 						{
							"major" : 8,
							"minor" : 0,
							"revision" : 3,
							"architecture" : "x64",
							"modernui" : 1
						}
,
						"classnamespace" : "box",
						"rect" : [ 873.0, 224.0, 640.0, 480.0 ],
						"bglocked" : 0,
						"openinpresentation" : 1,
						"default_fontsize" : 12.0,
						"default_fontface" : 0,
						"default_fontname" : "Arial",
						"gridonopen" : 1,
						"gridsize" : [ 15.0, 15.0 ],
						"gridsnaponopen" : 1,
						"objectsnaponopen" : 1,
						"statusbarvisible" : 2,
						"toolbarvisible" : 1,
						"lefttoolbarpinned" : 0,
						"toptoolbarpinned" : 0,
						"righttoolbarpinned" : 0,
						"bottomtoolbarpinned" : 0,
						"toolbars_unpinned_last_save" : 0,
						"tallnewobj" : 0,
						"boxanimatetime" : 200,
						"enablehscroll" : 1,
						"enablevscroll" : 1,
						"devicewidth" : 0.0,
						"description" : "",
						"digest" : "",
						"tags" : "",
						"style" : "",
						"subpatcher_template" : "",
						"boxes" : [ 							{
								"box" : 								{
									"id" : "obj-5",
									"maxclass" : "newobj",
									"numinlets" : 1,
									"numoutlets" : 1,
									"outlettype" : [ "" ],
									"patching_rect" : [ 237.0, 186.0, 72.0, 22.0 ],
									"text" : "prepend fps"
								}

							}
, 							{
								"box" : 								{
									"id" : "obj-4",
									"maxclass" : "newobj",
									"numinlets" : 1,
									"numoutlets" : 1,
									"outlettype" : [ "" ],
									"patching_rect" : [ 141.0, 347.0, 95.0, 22.0 ],
									"text" : "prepend floating"
								}

							}
, 							{
								"box" : 								{
									"id" : "obj-3",
									"maxclass" : "textbutton",
									"mode" : 1,
									"numinlets" : 1,
									"numoutlets" : 3,
									"outlettype" : [ "", "", "int" ],
									"parameter_enable" : 0,
									"patching_rect" : [ 141.0, 314.0, 100.0, 20.0 ],
									"presentation" : 1,
									"presentation_rect" : [ 2.0, 67.0, 151.0, 20.0 ],
									"text" : "Always on top",
									"texton" : "Always on top",
									"varname" : "textbutton[1]"
								}

							}
, 							{
								"box" : 								{
									"id" : "obj-31",
									"maxclass" : "newobj",
									"numinlets" : 1,
									"numoutlets" : 3,
									"outlettype" : [ "", "", "" ],
									"patching_rect" : [ 79.0, 281.0, 161.0, 22.0 ],
									"restore" : [ 0 ],
									"saved_object_attributes" : 									{
										"parameter_enable" : 0,
										"parameter_mappable" : 0
									}
,
									"text" : "pattr floating @autorestore 0",
									"varname" : "floating"
								}

							}
, 							{
								"box" : 								{
									"id" : "obj-28",
									"maxclass" : "newobj",
									"numinlets" : 1,
									"numoutlets" : 3,
									"outlettype" : [ "", "", "" ],
									"patching_rect" : [ 106.5, 116.0, 111.0, 22.0 ],
									"saved_object_attributes" : 									{
										"initial" : [ 60 ],
										"parameter_enable" : 0,
										"parameter_mappable" : 0
									}
,
									"text" : "pattr fps @initial 60",
									"varname" : "fps[1]"
								}

							}
, 							{
								"box" : 								{
									"id" : "obj-26",
									"maxclass" : "comment",
									"numinlets" : 1,
									"numoutlets" : 0,
									"patching_rect" : [ 133.0, 154.0, 31.0, 20.0 ],
									"presentation" : 1,
									"presentation_rect" : [ 74.0, 22.0, 27.0, 20.0 ],
									"text" : "fps"
								}

							}
, 							{
								"box" : 								{
									"format" : 6,
									"id" : "obj-24",
									"maxclass" : "flonum",
									"numinlets" : 1,
									"numoutlets" : 2,
									"outlettype" : [ "", "bang" ],
									"parameter_enable" : 0,
									"patching_rect" : [ 166.0, 154.0, 50.0, 22.0 ],
									"presentation" : 1,
									"presentation_rect" : [ 103.0, 21.0, 50.0, 22.0 ],
									"varname" : "number"
								}

							}
, 							{
								"box" : 								{
									"id" : "obj-6",
									"maxclass" : "newobj",
									"numinlets" : 1,
									"numoutlets" : 3,
									"outlettype" : [ "", "", "" ],
									"patching_rect" : [ 386.0, 86.5, 154.0, 22.0 ],
									"saved_object_attributes" : 									{
										"initial" : [ 0 ],
										"parameter_enable" : 0,
										"parameter_mappable" : 0
									}
,
									"text" : "pattr fshidecursor @initial 0",
									"varname" : "fshidecursor"
								}

							}
, 							{
								"box" : 								{
									"id" : "obj-10",
									"maxclass" : "textbutton",
									"mode" : 1,
									"numinlets" : 1,
									"numoutlets" : 3,
									"outlettype" : [ "", "", "int" ],
									"parameter_enable" : 0,
									"patching_rect" : [ 470.0, 143.0, 152.0, 19.0 ],
									"presentation" : 1,
									"presentation_rect" : [ 2.0, 46.0, 152.0, 19.0 ],
									"text" : "Hide fullscreen cursor",
									"texton" : "Hide fullscreen cursor",
									"varname" : "textbutton"
								}

							}
, 							{
								"box" : 								{
									"comment" : "",
									"id" : "obj-2",
									"index" : 1,
									"maxclass" : "inlet",
									"numinlets" : 0,
									"numoutlets" : 1,
									"outlettype" : [ "" ],
									"patching_rect" : [ 309.0, 95.0, 30.0, 30.0 ]
								}

							}
, 							{
								"box" : 								{
									"comment" : "",
									"id" : "obj-1",
									"index" : 1,
									"maxclass" : "outlet",
									"numinlets" : 1,
									"numoutlets" : 0,
									"patching_rect" : [ 444.0, 406.0, 30.0, 30.0 ]
								}

							}
, 							{
								"box" : 								{
									"id" : "obj-15",
									"maxclass" : "newobj",
									"numinlets" : 2,
									"numoutlets" : 1,
									"outlettype" : [ "" ],
									"patcher" : 									{
										"fileversion" : 1,
										"appversion" : 										{
											"major" : 8,
											"minor" : 0,
											"revision" : 3,
											"architecture" : "x64",
											"modernui" : 1
										}
,
										"classnamespace" : "box",
										"rect" : [ 67.0, 110.0, 640.0, 480.0 ],
										"bglocked" : 0,
										"openinpresentation" : 0,
										"default_fontsize" : 12.0,
										"default_fontface" : 0,
										"default_fontname" : "Arial",
										"gridonopen" : 1,
										"gridsize" : [ 15.0, 15.0 ],
										"gridsnaponopen" : 1,
										"objectsnaponopen" : 1,
										"statusbarvisible" : 2,
										"toolbarvisible" : 1,
										"lefttoolbarpinned" : 0,
										"toptoolbarpinned" : 0,
										"righttoolbarpinned" : 0,
										"bottomtoolbarpinned" : 0,
										"toolbars_unpinned_last_save" : 0,
										"tallnewobj" : 0,
										"boxanimatetime" : 200,
										"enablehscroll" : 1,
										"enablevscroll" : 1,
										"devicewidth" : 0.0,
										"description" : "",
										"digest" : "",
										"tags" : "",
										"style" : "",
										"subpatcher_template" : "",
										"boxes" : [ 											{
												"box" : 												{
													"id" : "obj-8",
													"maxclass" : "newobj",
													"numinlets" : 2,
													"numoutlets" : 1,
													"outlettype" : [ "" ],
													"patching_rect" : [ 39.5, 201.0, 32.0, 22.0 ],
													"text" : "gate"
												}

											}
, 											{
												"box" : 												{
													"id" : "obj-7",
													"maxclass" : "newobj",
													"numinlets" : 2,
													"numoutlets" : 1,
													"outlettype" : [ "" ],
													"patching_rect" : [ 78.5, 201.0, 32.0, 22.0 ],
													"text" : "gate"
												}

											}
, 											{
												"box" : 												{
													"id" : "obj-6",
													"maxclass" : "message",
													"numinlets" : 2,
													"numoutlets" : 1,
													"outlettype" : [ "" ],
													"patching_rect" : [ 274.5, 236.0, 29.5, 22.0 ],
													"text" : "1"
												}

											}
, 											{
												"box" : 												{
													"id" : "obj-2",
													"maxclass" : "newobj",
													"numinlets" : 3,
													"numoutlets" : 3,
													"outlettype" : [ "bang", "bang", "" ],
													"patching_rect" : [ 254.0, 130.0, 60.0, 22.0 ],
													"text" : "select 1 0"
												}

											}
, 											{
												"box" : 												{
													"comment" : "",
													"id" : "obj-1",
													"index" : 2,
													"maxclass" : "inlet",
													"numinlets" : 0,
													"numoutlets" : 1,
													"outlettype" : [ "" ],
													"patching_rect" : [ 254.0, 43.0, 30.0, 30.0 ]
												}

											}
, 											{
												"box" : 												{
													"id" : "obj-4",
													"maxclass" : "newobj",
													"numinlets" : 2,
													"numoutlets" : 1,
													"outlettype" : [ "int" ],
													"patching_rect" : [ 78.5, 275.0, 31.0, 22.0 ],
													"text" : "!= 1"
												}

											}
, 											{
												"box" : 												{
													"id" : "obj-5",
													"maxclass" : "newobj",
													"numinlets" : 2,
													"numoutlets" : 2,
													"outlettype" : [ "", "" ],
													"patching_rect" : [ 78.5, 241.0, 93.0, 22.0 ],
													"text" : "route fullscreen"
												}

											}
, 											{
												"box" : 												{
													"id" : "obj-47",
													"linecount" : 2,
													"maxclass" : "message",
													"numinlets" : 2,
													"numoutlets" : 1,
													"outlettype" : [ "" ],
													"patching_rect" : [ 78.5, 310.0, 87.0, 35.0 ],
													"text" : ";\r\njitter cursor $1"
												}

											}
, 											{
												"box" : 												{
													"id" : "obj-36",
													"maxclass" : "newobj",
													"numinlets" : 2,
													"numoutlets" : 1,
													"outlettype" : [ "bang" ],
													"patching_rect" : [ 50.0, 100.0, 128.0, 22.0 ],
													"text" : "metro 1000 @active 1"
												}

											}
, 											{
												"box" : 												{
													"id" : "obj-49",
													"maxclass" : "message",
													"numinlets" : 2,
													"numoutlets" : 1,
													"outlettype" : [ "" ],
													"patching_rect" : [ 50.0, 130.0, 79.0, 22.0 ],
													"text" : "getfullscreen"
												}

											}
, 											{
												"box" : 												{
													"comment" : "",
													"id" : "obj-13",
													"index" : 1,
													"maxclass" : "inlet",
													"numinlets" : 0,
													"numoutlets" : 1,
													"outlettype" : [ "" ],
													"patching_rect" : [ 59.5, 40.0, 30.0, 30.0 ]
												}

											}
, 											{
												"box" : 												{
													"comment" : "",
													"id" : "obj-14",
													"index" : 1,
													"maxclass" : "outlet",
													"numinlets" : 1,
													"numoutlets" : 0,
													"patching_rect" : [ 36.0, 391.0, 30.0, 30.0 ]
												}

											}
 ],
										"lines" : [ 											{
												"patchline" : 												{
													"destination" : [ "obj-2", 0 ],
													"order" : 0,
													"source" : [ "obj-1", 0 ]
												}

											}
, 											{
												"patchline" : 												{
													"destination" : [ "obj-7", 0 ],
													"order" : 1,
													"source" : [ "obj-1", 0 ]
												}

											}
, 											{
												"patchline" : 												{
													"destination" : [ "obj-8", 0 ],
													"order" : 2,
													"source" : [ "obj-1", 0 ]
												}

											}
, 											{
												"patchline" : 												{
													"destination" : [ "obj-7", 1 ],
													"source" : [ "obj-13", 0 ]
												}

											}
, 											{
												"patchline" : 												{
													"destination" : [ "obj-6", 0 ],
													"source" : [ "obj-2", 1 ]
												}

											}
, 											{
												"patchline" : 												{
													"destination" : [ "obj-49", 0 ],
													"source" : [ "obj-36", 0 ]
												}

											}
, 											{
												"patchline" : 												{
													"destination" : [ "obj-47", 0 ],
													"source" : [ "obj-4", 0 ]
												}

											}
, 											{
												"patchline" : 												{
													"destination" : [ "obj-8", 1 ],
													"source" : [ "obj-49", 0 ]
												}

											}
, 											{
												"patchline" : 												{
													"destination" : [ "obj-4", 0 ],
													"source" : [ "obj-5", 0 ]
												}

											}
, 											{
												"patchline" : 												{
													"destination" : [ "obj-47", 0 ],
													"source" : [ "obj-6", 0 ]
												}

											}
, 											{
												"patchline" : 												{
													"destination" : [ "obj-5", 0 ],
													"source" : [ "obj-7", 0 ]
												}

											}
, 											{
												"patchline" : 												{
													"destination" : [ "obj-14", 0 ],
													"source" : [ "obj-8", 0 ]
												}

											}
 ]
									}
,
									"patching_rect" : [ 378.0, 251.0, 144.0, 22.0 ],
									"saved_object_attributes" : 									{
										"description" : "",
										"digest" : "",
										"globalpatchername" : "",
										"tags" : ""
									}
,
									"text" : "p fullscreen_hide_mouse"
								}

							}
, 							{
								"box" : 								{
									"id" : "obj-8",
									"maxclass" : "newobj",
									"numinlets" : 1,
									"numoutlets" : 1,
									"outlettype" : [ "" ],
									"patching_rect" : [ 27.5, 45.0, 72.0, 22.0 ],
									"text" : "loadmess 1"
								}

							}
, 							{
								"box" : 								{
									"id" : "obj-27",
									"maxclass" : "textbutton",
									"mode" : 1,
									"numinlets" : 1,
									"numoutlets" : 3,
									"outlettype" : [ "", "", "int" ],
									"parameter_enable" : 0,
									"patching_rect" : [ 27.5, 72.0, 61.0, 18.0 ],
									"presentation" : 1,
									"presentation_rect" : [ 2.0, 22.0, 70.0, 22.0 ],
									"text" : "Render",
									"texton" : "Render"
								}

							}
, 							{
								"box" : 								{
									"bgcolor" : [ 1.0, 1.0, 1.0, 0.51 ],
									"id" : "obj-17",
									"maxclass" : "comment",
									"numinlets" : 1,
									"numoutlets" : 0,
									"patching_rect" : [ 52.5, 239.0, 496.5, 20.0 ],
									"presentation" : 1,
									"presentation_rect" : [ 0.0, 0.0, 157.690582275390625, 20.0 ],
									"text" : "jit.world"
								}

							}
, 							{
								"box" : 								{
									"angle" : 270.0,
									"bgcolor" : [ 0.85098, 0.894118, 0.760784, 1.0 ],
									"id" : "obj-11",
									"maxclass" : "panel",
									"mode" : 0,
									"numinlets" : 1,
									"numoutlets" : 0,
									"patching_rect" : [ 46.0, 234.0, 507.0, 152.0 ],
									"presentation" : 1,
									"presentation_rect" : [ 0.0, 0.0, 157.690582275390625, 91.040359497070313 ],
									"proportion" : 0.39
								}

							}
 ],
						"lines" : [ 							{
								"patchline" : 								{
									"destination" : [ "obj-15", 1 ],
									"source" : [ "obj-10", 0 ]
								}

							}
, 							{
								"patchline" : 								{
									"destination" : [ "obj-1", 0 ],
									"source" : [ "obj-15", 0 ]
								}

							}
, 							{
								"patchline" : 								{
									"destination" : [ "obj-15", 0 ],
									"source" : [ "obj-2", 0 ]
								}

							}
, 							{
								"patchline" : 								{
									"destination" : [ "obj-5", 0 ],
									"source" : [ "obj-24", 0 ]
								}

							}
, 							{
								"patchline" : 								{
									"destination" : [ "obj-1", 0 ],
									"source" : [ "obj-27", 0 ]
								}

							}
, 							{
								"patchline" : 								{
									"destination" : [ "obj-24", 0 ],
									"source" : [ "obj-28", 1 ]
								}

							}
, 							{
								"patchline" : 								{
									"destination" : [ "obj-4", 0 ],
									"source" : [ "obj-3", 0 ]
								}

							}
, 							{
								"patchline" : 								{
									"destination" : [ "obj-3", 0 ],
									"source" : [ "obj-31", 1 ]
								}

							}
, 							{
								"patchline" : 								{
									"destination" : [ "obj-1", 0 ],
									"source" : [ "obj-4", 0 ]
								}

							}
, 							{
								"patchline" : 								{
									"destination" : [ "obj-1", 0 ],
									"source" : [ "obj-5", 0 ]
								}

							}
, 							{
								"patchline" : 								{
									"destination" : [ "obj-10", 0 ],
									"source" : [ "obj-6", 1 ]
								}

							}
, 							{
								"patchline" : 								{
									"destination" : [ "obj-27", 0 ],
									"source" : [ "obj-8", 0 ]
								}

							}
 ],
						"styles" : [ 							{
								"name" : "Audiomix",
								"default" : 								{
									"bgfillcolor" : 									{
										"type" : "gradient",
										"color1" : [ 0.376471, 0.384314, 0.4, 1.0 ],
										"color2" : [ 0.290196, 0.309804, 0.301961, 1.0 ],
										"color" : [ 0.290196, 0.309804, 0.301961, 1.0 ],
										"angle" : 270.0,
										"proportion" : 0.39
									}

								}
,
								"parentstyle" : "",
								"multi" : 0
							}
, 							{
								"name" : "newobjBlue-1",
								"default" : 								{
									"accentcolor" : [ 0.317647, 0.654902, 0.976471, 1.0 ]
								}
,
								"parentstyle" : "",
								"multi" : 0
							}
, 							{
								"name" : "newobjGreen-1",
								"default" : 								{
									"accentcolor" : [ 0.0, 0.533333, 0.168627, 1.0 ]
								}
,
								"parentstyle" : "",
								"multi" : 0
							}
, 							{
								"name" : "newobjRed-1",
								"default" : 								{
									"accentcolor" : [ 0.784314, 0.145098, 0.023529, 1.0 ]
								}
,
								"parentstyle" : "",
								"multi" : 0
							}
, 							{
								"name" : "newobjYellow-1",
								"default" : 								{
									"accentcolor" : [ 0.82517, 0.78181, 0.059545, 1.0 ],
									"fontsize" : [ 12.059008 ]
								}
,
								"parentstyle" : "",
								"multi" : 0
							}
 ]
					}
,
					"patching_rect" : [ 46.0, 41.907470703125, 161.0, 91.0 ],
					"presentation" : 1,
					"presentation_rect" : [ 14.5, 8.0, 161.0, 91.0 ],
					"varname" : "jitworld",
					"viewvisibility" : 1
				}

			}
, 			{
				"box" : 				{
					"fontname" : "Arial",
					"fontsize" : 12.0,
					"id" : "obj-16",
					"maxclass" : "newobj",
					"numinlets" : 1,
					"numoutlets" : 2,
					"outlettype" : [ "jit_gl_texture", "" ],
					"patching_rect" : [ 295.0, 152.407470703125, 319.0, 22.0 ],
					"text" : "jit.gl.camera @tripod 1 @position 0 0 2. @animmode local"
				}

			}
, 			{
				"box" : 				{
					"bgcolor" : [ 1.0, 1.0, 1.0, 0.5 ],
					"id" : "obj-19",
					"maxclass" : "comment",
					"numinlets" : 1,
					"numoutlets" : 0,
					"patching_rect" : [ 632.5, 38.5, 304.0, 20.0 ],
					"presentation" : 1,
					"presentation_rect" : [ 346.0, 8.0, 155.0, 20.0 ],
					"text" : "jit.phys"
				}

			}
, 			{
				"box" : 				{
					"id" : "obj-20",
					"maxclass" : "textbutton",
					"mode" : 1,
					"numinlets" : 1,
					"numoutlets" : 3,
					"outlettype" : [ "", "", "int" ],
					"parameter_enable" : 0,
					"patching_rect" : [ 771.0, 94.5, 100.0, 20.0 ],
					"presentation" : 1,
					"presentation_rect" : [ 426.0, 33.0, 70.0, 22.0 ],
					"text" : "physdraw",
					"texton" : "physdraw",
					"varname" : "textbutton[1]"
				}

			}
, 			{
				"box" : 				{
					"id" : "obj-23",
					"maxclass" : "newobj",
					"numinlets" : 1,
					"numoutlets" : 3,
					"outlettype" : [ "", "", "" ],
					"patching_rect" : [ 632.5, 65.5, 382.0, 22.0 ],
					"restore" : [ 0 ],
					"saved_object_attributes" : 					{
						"parameter_enable" : 0,
						"parameter_mappable" : 0
					}
,
					"text" : "pattr enable_physdraw @bindto jitglphysdraw::enable @autorestore 0",
					"varname" : "enable_physdraw"
				}

			}
, 			{
				"box" : 				{
					"id" : "obj-18",
					"maxclass" : "textbutton",
					"mode" : 1,
					"numinlets" : 1,
					"numoutlets" : 3,
					"outlettype" : [ "", "", "int" ],
					"parameter_enable" : 0,
					"patching_rect" : [ 759.5, 151.5, 100.0, 20.0 ],
					"presentation" : 1,
					"presentation_rect" : [ 351.0, 33.0, 70.0, 22.0 ],
					"text" : "physpicker",
					"texton" : "physpicker",
					"varname" : "textbutton"
				}

			}
, 			{
				"box" : 				{
					"id" : "obj-21",
					"maxclass" : "newobj",
					"numinlets" : 1,
					"numoutlets" : 3,
					"outlettype" : [ "", "", "" ],
					"patching_rect" : [ 632.5, 123.5, 359.0, 22.0 ],
					"restore" : [ 0 ],
					"saved_object_attributes" : 					{
						"parameter_enable" : 0,
						"parameter_mappable" : 0
					}
,
					"text" : "pattr enable_picker @bindto jitphyspicker::enable @autorestore 0",
					"varname" : "enable_picker"
				}

			}
, 			{
				"box" : 				{
					"fontname" : "Verdana",
					"fontsize" : 12.0,
					"id" : "obj-57",
					"maxclass" : "newobj",
					"numinlets" : 1,
					"numoutlets" : 2,
					"outlettype" : [ "", "" ],
					"patching_rect" : [ 632.5, 151.5, 96.0, 23.0 ],
					"text" : "jit.phys.picker",
					"varname" : "jitphyspicker"
				}

			}
, 			{
				"box" : 				{
					"fontname" : "Verdana",
					"fontsize" : 12.0,
					"id" : "obj-58",
					"maxclass" : "newobj",
					"numinlets" : 1,
					"numoutlets" : 1,
					"outlettype" : [ "" ],
					"patching_rect" : [ 632.5, 91.5, 100.0, 23.0 ],
					"text" : "jit.gl.physdraw",
					"varname" : "jitglphysdraw"
				}

			}
, 			{
				"box" : 				{
					"id" : "obj-3",
					"maxclass" : "newobj",
					"numinlets" : 1,
					"numoutlets" : 3,
					"outlettype" : [ "", "bang", "" ],
					"patching_rect" : [ 46.0, 139.5, 102.0, 22.0 ],
					"text" : "jit.world @ortho 2"
				}

			}
, 			{
				"box" : 				{
					"angle" : 270.0,
					"bgcolor" : [ 0.880169, 0.755396, 0.471904, 1.0 ],
					"id" : "obj-14",
					"maxclass" : "panel",
					"mode" : 0,
					"numinlets" : 1,
					"numoutlets" : 0,
					"patching_rect" : [ 627.5, 38.5, 320.0, 142.0 ],
					"presentation" : 1,
					"presentation_rect" : [ 346.0, 8.0, 155.0, 85.0 ],
					"proportion" : 0.39
				}

			}
 ],
		"lines" : [ 			{
				"patchline" : 				{
					"destination" : [ "obj-18", 0 ],
					"source" : [ "obj-21", 1 ]
				}

			}
, 			{
				"patchline" : 				{
					"destination" : [ "obj-20", 0 ],
					"source" : [ "obj-23", 1 ]
				}

			}
, 			{
				"patchline" : 				{
					"destination" : [ "obj-3", 0 ],
					"source" : [ "obj-29", 0 ]
				}

			}
, 			{
				"patchline" : 				{
					"destination" : [ "obj-29", 0 ],
					"midpoints" : [ 138.5, 181.5, 278.5, 181.5, 278.5, 26.5, 55.5, 26.5 ],
					"source" : [ "obj-3", 2 ]
				}

			}
, 			{
				"patchline" : 				{
					"destination" : [ "obj-16", 0 ],
					"source" : [ "obj-31", 0 ]
				}

			}
 ],
		"dependency_cache" : [  ],
		"autosave" : 0,
		"styles" : [ 			{
				"name" : "Audiomix",
				"default" : 				{
					"bgfillcolor" : 					{
						"type" : "gradient",
						"color1" : [ 0.376471, 0.384314, 0.4, 1.0 ],
						"color2" : [ 0.290196, 0.309804, 0.301961, 1.0 ],
						"color" : [ 0.290196, 0.309804, 0.301961, 1.0 ],
						"angle" : 270.0,
						"proportion" : 0.39
					}

				}
,
				"parentstyle" : "",
				"multi" : 0
			}
, 			{
				"name" : "newobjBlue-1",
				"default" : 				{
					"accentcolor" : [ 0.317647, 0.654902, 0.976471, 1.0 ]
				}
,
				"parentstyle" : "",
				"multi" : 0
			}
, 			{
				"name" : "newobjGreen-1",
				"default" : 				{
					"accentcolor" : [ 0.0, 0.533333, 0.168627, 1.0 ]
				}
,
				"parentstyle" : "",
				"multi" : 0
			}
, 			{
				"name" : "newobjRed-1",
				"default" : 				{
					"accentcolor" : [ 0.784314, 0.145098, 0.023529, 1.0 ]
				}
,
				"parentstyle" : "",
				"multi" : 0
			}
, 			{
				"name" : "newobjYellow-1",
				"default" : 				{
					"accentcolor" : [ 0.82517, 0.78181, 0.059545, 1.0 ],
					"fontsize" : [ 12.059008 ]
				}
,
				"parentstyle" : "",
				"multi" : 0
			}
 ]
	}

}
