{
	"patcher" : 	{
		"fileversion" : 1,
		"appversion" : 		{
			"major" : 8,
			"minor" : 0,
			"revision" : 3,
			"architecture" : "x64",
			"modernui" : 1
		}
,
		"classnamespace" : "box",
		"rect" : [ 42.0, 85.0, 1568.0, 939.0 ],
		"bglocked" : 0,
		"openinpresentation" : 0,
		"default_fontsize" : 12.0,
		"default_fontface" : 0,
		"default_fontname" : "Arial",
		"gridonopen" : 1,
		"gridsize" : [ 15.0, 15.0 ],
		"gridsnaponopen" : 1,
		"objectsnaponopen" : 1,
		"statusbarvisible" : 2,
		"toolbarvisible" : 1,
		"lefttoolbarpinned" : 0,
		"toptoolbarpinned" : 0,
		"righttoolbarpinned" : 0,
		"bottomtoolbarpinned" : 0,
		"toolbars_unpinned_last_save" : 0,
		"tallnewobj" : 0,
		"boxanimatetime" : 200,
		"enablehscroll" : 1,
		"enablevscroll" : 1,
		"devicewidth" : 0.0,
		"description" : "",
		"digest" : "",
		"tags" : "",
		"style" : "",
		"subpatcher_template" : "",
		"boxes" : [ 			{
				"box" : 				{
					"id" : "obj-98",
					"maxclass" : "comment",
					"numinlets" : 1,
					"numoutlets" : 0,
					"patching_rect" : [ 1060.0, 918.0, 349.0, 20.0 ],
					"text" : "Route the \"x y z\" real position of the right wrist of user id 1"
				}

			}
, 			{
				"box" : 				{
					"id" : "obj-99",
					"maxclass" : "newobj",
					"numinlets" : 1,
					"numoutlets" : 4,
					"outlettype" : [ "", "", "", "" ],
					"patching_rect" : [ 999.0, 918.0, 51.0, 22.0 ],
					"text" : "unjoin 3"
				}

			}
, 			{
				"box" : 				{
					"id" : "obj-97",
					"maxclass" : "comment",
					"numinlets" : 1,
					"numoutlets" : 0,
					"patching_rect" : [ 1205.0, 560.0, 235.0, 20.0 ],
					"text" : "Route face properties for user 1"
				}

			}
, 			{
				"box" : 				{
					"id" : "obj-3",
					"linecount" : 2,
					"maxclass" : "newobj",
					"numinlets" : 13,
					"numoutlets" : 13,
					"outlettype" : [ "", "", "", "", "", "", "", "", "", "", "", "", "" ],
					"patching_rect" : [ 1189.0, 582.0, 501.0, 35.0 ],
					"text" : "route happy engaged wearingglasses lefteyeclosed righteyeclosed mouthopen mouthmoved lookingaway bounds boundsdepth pose scale"
				}

			}
, 			{
				"box" : 				{
					"id" : "obj-95",
					"maxclass" : "comment",
					"numinlets" : 1,
					"numoutlets" : 0,
					"patching_rect" : [ 1294.0, 529.0, 216.0, 20.0 ],
					"text" : "Route face data by user id"
				}

			}
, 			{
				"box" : 				{
					"id" : "obj-96",
					"maxclass" : "newobj",
					"numinlets" : 7,
					"numoutlets" : 7,
					"outlettype" : [ "", "", "", "", "", "", "" ],
					"patching_rect" : [ 1189.0, 529.0, 96.0, 22.0 ],
					"text" : "route 1 2 3 4 5 6"
				}

			}
, 			{
				"box" : 				{
					"id" : "obj-92",
					"maxclass" : "newobj",
					"numinlets" : 1,
					"numoutlets" : 2,
					"outlettype" : [ "jit_matrix", "" ],
					"patching_rect" : [ 576.20001220703125, 472.5625, 114.0, 22.0 ],
					"text" : "jit.matrix kinectRGB"
				}

			}
, 			{
				"box" : 				{
					"id" : "obj-90",
					"maxclass" : "comment",
					"numinlets" : 1,
					"numoutlets" : 0,
					"patching_rect" : [ 1214.5, 639.5, 216.0, 20.0 ],
					"text" : "Lost user by id"
				}

			}
, 			{
				"box" : 				{
					"id" : "obj-91",
					"maxclass" : "newobj",
					"numinlets" : 7,
					"numoutlets" : 7,
					"outlettype" : [ "bang", "bang", "bang", "bang", "bang", "bang", "" ],
					"patching_rect" : [ 1131.0, 638.5, 84.0, 22.0 ],
					"text" : "sel 1 2 3 4 5 6"
				}

			}
, 			{
				"box" : 				{
					"id" : "obj-88",
					"maxclass" : "comment",
					"numinlets" : 1,
					"numoutlets" : 0,
					"patching_rect" : [ 1168.5, 668.5, 216.0, 20.0 ],
					"text" : "New user by id"
				}

			}
, 			{
				"box" : 				{
					"id" : "obj-89",
					"maxclass" : "newobj",
					"numinlets" : 7,
					"numoutlets" : 7,
					"outlettype" : [ "bang", "bang", "bang", "bang", "bang", "bang", "" ],
					"patching_rect" : [ 1085.0, 667.5, 84.0, 22.0 ],
					"text" : "sel 1 2 3 4 5 6"
				}

			}
, 			{
				"box" : 				{
					"id" : "obj-84",
					"maxclass" : "comment",
					"numinlets" : 1,
					"numoutlets" : 0,
					"patching_rect" : [ 1102.0, 738.0, 349.0, 20.0 ],
					"text" : "Route the \"x y z\" real position for the  user  1"
				}

			}
, 			{
				"box" : 				{
					"id" : "obj-83",
					"maxclass" : "newobj",
					"numinlets" : 1,
					"numoutlets" : 4,
					"outlettype" : [ "", "", "", "" ],
					"patching_rect" : [ 1041.0, 738.0, 51.0, 22.0 ],
					"text" : "unjoin 3"
				}

			}
, 			{
				"box" : 				{
					"id" : "obj-82",
					"maxclass" : "comment",
					"numinlets" : 1,
					"numoutlets" : 0,
					"patching_rect" : [ 1146.0, 704.5, 216.0, 20.0 ],
					"text" : "Route the user id"
				}

			}
, 			{
				"box" : 				{
					"id" : "obj-79",
					"maxclass" : "newobj",
					"numinlets" : 7,
					"numoutlets" : 7,
					"outlettype" : [ "", "", "", "", "", "", "" ],
					"patching_rect" : [ 1041.0, 704.5, 96.0, 22.0 ],
					"text" : "route 1 2 3 4 5 6"
				}

			}
, 			{
				"box" : 				{
					"id" : "obj-78",
					"maxclass" : "comment",
					"numinlets" : 1,
					"numoutlets" : 0,
					"patching_rect" : [ 1014.0, 828.03125, 235.0, 20.0 ],
					"text" : "Route the skeleton parts for user id 1"
				}

			}
, 			{
				"box" : 				{
					"id" : "obj-77",
					"maxclass" : "comment",
					"numinlets" : 1,
					"numoutlets" : 0,
					"patching_rect" : [ 1103.0, 794.03125, 216.0, 20.0 ],
					"text" : "Route the skeleton by user id"
				}

			}
, 			{
				"box" : 				{
					"id" : "obj-75",
					"linecount" : 3,
					"maxclass" : "newobj",
					"numinlets" : 26,
					"numoutlets" : 26,
					"outlettype" : [ "", "", "", "", "", "", "", "", "", "", "", "", "", "", "", "", "", "", "", "", "", "", "", "", "", "" ],
					"patching_rect" : [ 999.0, 853.03125, 480.0, 49.0 ],
					"text" : "route r_wrist r_hand l_hip l_knee l_ankle l_foot r_hip r_knee r_ankle r_foot c_shoulder l_hand_tip l_thumb r_hand_tip r_thumb waist torso neck head l_shoulder l_elbow l_wrist l_hand r_shoulder r_elbow"
				}

			}
, 			{
				"box" : 				{
					"id" : "obj-72",
					"maxclass" : "newobj",
					"numinlets" : 7,
					"numoutlets" : 7,
					"outlettype" : [ "", "", "", "", "", "", "" ],
					"patching_rect" : [ 999.0, 791.53125, 96.0, 22.0 ],
					"text" : "route 1 2 3 4 5 6"
				}

			}
, 			{
				"box" : 				{
					"id" : "obj-71",
					"maxclass" : "newobj",
					"numinlets" : 6,
					"numoutlets" : 6,
					"outlettype" : [ "", "", "", "", "", "" ],
					"patching_rect" : [ 1004.20001220703125, 472.5625, 221.0, 22.0 ],
					"text" : "route skel user new_user lost_user face"
				}

			}
, 			{
				"box" : 				{
					"bubble" : 1,
					"bubbleside" : 0,
					"fontname" : "Arial",
					"fontsize" : 12.0,
					"id" : "obj-42",
					"linecount" : 2,
					"maxclass" : "comment",
					"numinlets" : 1,
					"numoutlets" : 0,
					"patching_rect" : [ 90.0, 499.5625, 179.0, 52.0 ],
					"text" : "Depth in 512x424 pixel resolution up to 8 meters away",
					"textjustification" : 1
				}

			}
, 			{
				"box" : 				{
					"bubble" : 1,
					"bubbleside" : 0,
					"fontname" : "Arial",
					"fontsize" : 12.0,
					"id" : "obj-40",
					"linecount" : 2,
					"maxclass" : "comment",
					"numinlets" : 1,
					"numoutlets" : 0,
					"patching_rect" : [ 664.70001220703125, 820.03125, 185.0, 52.0 ],
					"text" : "Full HD 1920x1080 color in your choice of seven pixel formats",
					"textjustification" : 1
				}

			}
, 			{
				"box" : 				{
					"id" : "obj-38",
					"idlemouse" : 1,
					"maxclass" : "jit.pwindow",
					"numinlets" : 1,
					"numoutlets" : 2,
					"outlettype" : [ "", "" ],
					"patching_rect" : [ 576.20001220703125, 617.96875, 362.0, 202.0625 ]
				}

			}
, 			{
				"box" : 				{
					"id" : "obj-18",
					"idlemouse" : 1,
					"maxclass" : "jit.pwindow",
					"numinlets" : 1,
					"numoutlets" : 2,
					"outlettype" : [ "", "" ],
					"patching_rect" : [ 140.0, 435.5, 83.0, 59.0625 ]
				}

			}
, 			{
				"box" : 				{
					"bubble" : 1,
					"fontname" : "Arial",
					"fontsize" : 12.0,
					"id" : "obj-17",
					"linecount" : 3,
					"maxclass" : "comment",
					"numinlets" : 1,
					"numoutlets" : 0,
					"patching_rect" : [ 332.0, 609.5, 223.0, 51.0 ],
					"text" : "The depth is in meters from 0 to 8. We mutiply the depth values by 0.125 to scale them from 0 to 1."
				}

			}
, 			{
				"box" : 				{
					"fontname" : "Arial",
					"fontsize" : 12.0,
					"id" : "obj-22",
					"maxclass" : "newobj",
					"numinlets" : 2,
					"numoutlets" : 2,
					"outlettype" : [ "jit_matrix", "" ],
					"patching_rect" : [ 193.0, 624.0, 137.0, 22.0 ],
					"text" : "jit.op @op * @val 0.125"
				}

			}
, 			{
				"box" : 				{
					"id" : "obj-37",
					"idlemouse" : 1,
					"maxclass" : "jit.pwindow",
					"numinlets" : 1,
					"numoutlets" : 2,
					"outlettype" : [ "", "" ],
					"patching_rect" : [ 193.0, 674.5, 245.0, 202.0625 ]
				}

			}
, 			{
				"box" : 				{
					"id" : "obj-16",
					"maxclass" : "comment",
					"numinlets" : 1,
					"numoutlets" : 0,
					"patching_rect" : [ 51.0, 298.0, 326.0, 20.0 ],
					"text" : "Update the camera output 30 times per second",
					"textjustification" : 2
				}

			}
, 			{
				"box" : 				{
					"id" : "obj-15",
					"maxclass" : "comment",
					"numinlets" : 1,
					"numoutlets" : 0,
					"patching_rect" : [ 562.0, 344.0, 326.0, 20.0 ],
					"text" : "Send a \"clsoe\" message to deactivate the camera."
				}

			}
, 			{
				"box" : 				{
					"id" : "obj-14",
					"maxclass" : "comment",
					"numinlets" : 1,
					"numoutlets" : 0,
					"patching_rect" : [ 562.0, 320.0, 326.0, 20.0 ],
					"text" : "Send an \"open\" message to activate the camera."
				}

			}
, 			{
				"box" : 				{
					"id" : "obj-12",
					"maxclass" : "newobj",
					"numinlets" : 3,
					"numoutlets" : 3,
					"outlettype" : [ "bang", "bang", "" ],
					"patching_rect" : [ 481.0, 286.0, 103.0, 22.0 ],
					"text" : "sel 0 1"
				}

			}
, 			{
				"box" : 				{
					"id" : "obj-11",
					"maxclass" : "newobj",
					"numinlets" : 1,
					"numoutlets" : 2,
					"outlettype" : [ "int", "int" ],
					"patching_rect" : [ 379.0, 234.0, 29.5, 22.0 ],
					"text" : "t i i"
				}

			}
, 			{
				"box" : 				{
					"fontname" : "Arial",
					"fontsize" : 12.0,
					"id" : "obj-35",
					"maxclass" : "message",
					"numinlets" : 2,
					"numoutlets" : 1,
					"outlettype" : [ "" ],
					"patching_rect" : [ 523.0, 320.0, 37.0, 22.0 ],
					"text" : "open"
				}

			}
, 			{
				"box" : 				{
					"fontname" : "Arial",
					"fontsize" : 12.0,
					"id" : "obj-33",
					"maxclass" : "message",
					"numinlets" : 2,
					"numoutlets" : 1,
					"outlettype" : [ "" ],
					"patching_rect" : [ 481.0, 335.0, 39.0, 22.0 ],
					"text" : "close"
				}

			}
, 			{
				"box" : 				{
					"fontname" : "Arial",
					"fontsize" : 12.0,
					"id" : "obj-29",
					"maxclass" : "newobj",
					"numinlets" : 2,
					"numoutlets" : 1,
					"outlettype" : [ "bang" ],
					"patching_rect" : [ 379.0, 296.0, 81.0, 22.0 ],
					"text" : "qmetro 30 hz"
				}

			}
, 			{
				"box" : 				{
					"id" : "obj-7",
					"maxclass" : "textbutton",
					"mode" : 1,
					"numinlets" : 1,
					"numoutlets" : 3,
					"outlettype" : [ "", "", "int" ],
					"parameter_enable" : 0,
					"patching_rect" : [ 379.0, 207.0, 100.0, 20.0 ],
					"text" : "kinect capture",
					"texton" : "kinect capture"
				}

			}
, 			{
				"box" : 				{
					"bubble" : 1,
					"fontname" : "Arial",
					"fontsize" : 12.0,
					"id" : "obj-6",
					"linecount" : 4,
					"maxclass" : "comment",
					"numinlets" : 1,
					"numoutlets" : 0,
					"patching_rect" : [ 1070.0, 362.5, 500.0, 64.0 ],
					"text" : "depthmap 1: activate depths output  (outlet 0)\ncolormap 1: activate color output (outlet 1)\nskeleton 1: activate skeleton output (outlet 4)\nskeletonformat 1: output skeleton data as Max messages (instead of OSC)"
				}

			}
, 			{
				"box" : 				{
					"color" : [ 0.996078431372549, 0.498039215686275, 0.0, 1.0 ],
					"fontname" : "Arial",
					"fontsize" : 12.0,
					"id" : "obj-36",
					"maxclass" : "newobj",
					"numinlets" : 1,
					"numoutlets" : 6,
					"outlettype" : [ "jit_matrix", "jit_matrix", "jit_matrix", "jit_matrix", "", "" ],
					"patching_rect" : [ 461.0, 383.5, 595.0, 22.0 ],
					"text" : "dp.kinect2 @type float32 @depthmap 1 @colormap 1 @skeleton 1 @skeletonformat 1 @faceprop 1 @faces 1"
				}

			}
, 			{
				"box" : 				{
					"id" : "obj-5",
					"maxclass" : "message",
					"numinlets" : 2,
					"numoutlets" : 1,
					"outlettype" : [ "" ],
					"patching_rect" : [ 57.0, 72.0, 64.0, 22.0 ],
					"text" : "floating $1"
				}

			}
, 			{
				"box" : 				{
					"id" : "obj-2",
					"maxclass" : "textbutton",
					"mode" : 1,
					"numinlets" : 1,
					"numoutlets" : 3,
					"outlettype" : [ "", "", "int" ],
					"parameter_enable" : 0,
					"patching_rect" : [ 57.0, 38.0, 100.0, 20.0 ],
					"text" : "floating 0",
					"texton" : "floating 1"
				}

			}
, 			{
				"box" : 				{
					"id" : "obj-1",
					"maxclass" : "newobj",
					"numinlets" : 1,
					"numoutlets" : 3,
					"outlettype" : [ "", "bang", "" ],
					"patching_rect" : [ 57.0, 109.0, 111.0, 22.0 ],
					"text" : "jit.world @enable 1"
				}

			}
 ],
		"lines" : [ 			{
				"patchline" : 				{
					"destination" : [ "obj-12", 0 ],
					"source" : [ "obj-11", 1 ]
				}

			}
, 			{
				"patchline" : 				{
					"destination" : [ "obj-29", 0 ],
					"source" : [ "obj-11", 0 ]
				}

			}
, 			{
				"patchline" : 				{
					"destination" : [ "obj-33", 0 ],
					"source" : [ "obj-12", 0 ]
				}

			}
, 			{
				"patchline" : 				{
					"destination" : [ "obj-35", 0 ],
					"source" : [ "obj-12", 1 ]
				}

			}
, 			{
				"patchline" : 				{
					"destination" : [ "obj-5", 0 ],
					"source" : [ "obj-2", 0 ]
				}

			}
, 			{
				"patchline" : 				{
					"destination" : [ "obj-37", 0 ],
					"source" : [ "obj-22", 0 ]
				}

			}
, 			{
				"patchline" : 				{
					"destination" : [ "obj-36", 0 ],
					"source" : [ "obj-29", 0 ]
				}

			}
, 			{
				"patchline" : 				{
					"destination" : [ "obj-36", 0 ],
					"source" : [ "obj-33", 0 ]
				}

			}
, 			{
				"patchline" : 				{
					"destination" : [ "obj-36", 0 ],
					"source" : [ "obj-35", 0 ]
				}

			}
, 			{
				"patchline" : 				{
					"destination" : [ "obj-18", 0 ],
					"order" : 1,
					"source" : [ "obj-36", 0 ]
				}

			}
, 			{
				"patchline" : 				{
					"destination" : [ "obj-22", 0 ],
					"order" : 0,
					"source" : [ "obj-36", 0 ]
				}

			}
, 			{
				"patchline" : 				{
					"destination" : [ "obj-71", 0 ],
					"source" : [ "obj-36", 4 ]
				}

			}
, 			{
				"patchline" : 				{
					"destination" : [ "obj-92", 0 ],
					"source" : [ "obj-36", 1 ]
				}

			}
, 			{
				"patchline" : 				{
					"destination" : [ "obj-1", 0 ],
					"source" : [ "obj-5", 0 ]
				}

			}
, 			{
				"patchline" : 				{
					"destination" : [ "obj-11", 0 ],
					"source" : [ "obj-7", 0 ]
				}

			}
, 			{
				"patchline" : 				{
					"destination" : [ "obj-72", 0 ],
					"source" : [ "obj-71", 0 ]
				}

			}
, 			{
				"patchline" : 				{
					"destination" : [ "obj-79", 0 ],
					"source" : [ "obj-71", 1 ]
				}

			}
, 			{
				"patchline" : 				{
					"destination" : [ "obj-89", 0 ],
					"source" : [ "obj-71", 2 ]
				}

			}
, 			{
				"patchline" : 				{
					"destination" : [ "obj-91", 0 ],
					"source" : [ "obj-71", 3 ]
				}

			}
, 			{
				"patchline" : 				{
					"destination" : [ "obj-96", 0 ],
					"source" : [ "obj-71", 4 ]
				}

			}
, 			{
				"patchline" : 				{
					"destination" : [ "obj-75", 0 ],
					"source" : [ "obj-72", 0 ]
				}

			}
, 			{
				"patchline" : 				{
					"destination" : [ "obj-99", 0 ],
					"source" : [ "obj-75", 0 ]
				}

			}
, 			{
				"patchline" : 				{
					"destination" : [ "obj-83", 0 ],
					"source" : [ "obj-79", 0 ]
				}

			}
, 			{
				"patchline" : 				{
					"destination" : [ "obj-38", 0 ],
					"source" : [ "obj-92", 0 ]
				}

			}
, 			{
				"patchline" : 				{
					"destination" : [ "obj-3", 0 ],
					"source" : [ "obj-96", 0 ]
				}

			}
 ],
		"dependency_cache" : [ 			{
				"name" : "dp.kinect2.mxe64",
				"type" : "mx64"
			}
, 			{
				"name" : "jit.pass.mxe64",
				"type" : "mx64"
			}
 ],
		"autosave" : 0
	}

}
